<?xml version="1.0" standalone="no"?>
<!DOCTYPE svg PUBLIC "-//W3C//DTD SVG 20010904//EN"
 "http://www.w3.org/TR/2001/REC-SVG-20010904/DTD/svg10.dtd">
<svg version="1.0" xmlns="http://www.w3.org/2000/svg"
 width="512.000000pt" height="512.000000pt" viewBox="0 0 512.000000 512.000000"
 preserveAspectRatio="xMidYMid meet">
<metadata>
Created by potrace 1.14, written by Peter Selinger 2001-2017
</metadata>
<g transform="translate(0.000000,512.000000) scale(0.100000,-0.100000)"
fill="#000000" stroke="none">
<path d="M1819 4638 c0 -18 0 -162 1 -320 l1 -288 -394 0 -393 0 1 -199 c0
-110 4 -203 8 -207 5 -5 83 -9 175 -10 145 0 173 -3 213 -21 46 -21 79 -57
100 -109 8 -21 11 -286 11 -920 0 -972 4 -918 -57 -974 -26 -24 -31 -25 -193
-27 -92 -1 -170 -2 -173 -2 -5 -1 -38 -165 -44 -221 -6 -47 -17 -114 -19 -119
-2 -3 -7 -28 -10 -55 -4 -27 -9 -53 -12 -58 -3 -4 23 -8 58 -8 35 0 212 -1
393 -3 l330 -2 2 -285 c1 -157 2 -302 2 -322 l1 -38 195 0 195 0 0 319 0 319
156 -1 155 -2 -1 -70 c-1 -38 -1 -181 -1 -317 l1 -248 195 0 195 0 0 324 c0
303 1 325 18 324 23 -2 193 12 212 17 8 2 42 6 75 10 188 19 426 104 559 199
199 142 308 390 309 706 2 261 -82 437 -267 562 -66 46 -200 104 -259 114
l-38 7 61 38 c91 58 170 144 212 230 48 98 66 190 63 325 -5 221 -81 389 -227
502 -116 88 -336 173 -513 198 -11 1 -62 8 -112 15 l-93 13 0 318 0 318 -195
0 -195 0 -1 -182 c0 -101 0 -240 1 -310 l1 -128 -83 -1 c-46 0 -116 -2 -155
-3 l-73 -2 0 313 0 313 -195 0 -195 0 -1 -32z m876 -1062 c104 -21 137 -30
195 -53 95 -36 144 -75 189 -148 47 -75 60 -197 30 -295 -18 -62 -105 -147
-189 -188 -36 -17 -101 -38 -145 -47 -44 -9 -89 -19 -100 -21 -48 -10 -227
-17 -380 -15 l-80 1 2 383 c1 210 2 386 2 391 1 9 426 2 476 -8z m-38 -1160
c62 -4 121 -9 131 -11 11 -2 36 -6 57 -9 61 -10 129 -28 139 -37 6 -5 17 -9
27 -9 37 0 159 -72 200 -118 68 -76 93 -142 93 -242 0 -96 -20 -154 -78 -224
-64 -78 -221 -149 -386 -176 -41 -6 -86 -13 -100 -16 -14 -2 -86 -6 -160 -10
-162 -7 -124 -7 -255 -5 l-110 1 2 417 c1 230 2 423 2 430 1 18 206 22 438 9z"/>
</g>
</svg>
